<?xml version="1.0" encoding="utf-8"?><svg xml:space="preserve" viewBox="0 0 128 128" y="0px" x="0px" xmlns:xlink="http://www.w3.org/1999/xlink" xmlns="http://www.w3.org/2000/svg" id="圖層_1" version="1.1" width="200px" height="200px" style="width:100%;height:100%;background-size:initial;background-repeat-y:initial;background-repeat-x:initial;background-position-y:initial;background-position-x:initial;background-origin:initial;background-image:initial;background-color:transparent;background-clip:initial;background-attachment:initial;animation-play-state:running" ><g class="ldl-scale" style="transform-origin:50% 50%;transform:rotate(0deg) scale(0.8, 0.8);animation-play-state:running" ><path d="z" fill="none" style="animation-play-state:running" ></path>
<path d="M51.72,35.73l-12.1-14.89 c-4.9-6.03-19.81-2.05-19.81-2.05l0,0c0,0-6.95,13.77-2.05,19.81L29.9,53.53" stroke-miterlimit="12.8" stroke-width="4.48" stroke="#333333" fill="#F5E6C8" style="stroke:rgb(51, 51, 51);fill:rgb(245, 230, 200);animation-play-state:running" ></path>
<path d="M74.43,37.91L88.3,20.84 c4.9-6.03,19.81-2.05,19.81-2.05l0,0c0,0,6.95,13.77,2.05,19.81L98.03,53.53" stroke-miterlimit="12.8" stroke-width="4.48" stroke="#333333" fill="#F5E6C8" style="stroke:rgb(51, 51, 51);fill:rgb(245, 230, 200);animation-play-state:running" ></path>
<circle r="44.54" cy="67.9" cx="64" stroke-miterlimit="12.8" stroke-width="4.48" stroke="#333333" fill="#F5E6C8" style="stroke:rgb(51, 51, 51);fill:rgb(245, 230, 200);animation-play-state:running" ></circle>
<path d="M45.74,63.22c-3.31,0-5.99-2.68-5.99-5.99v-8.98c0.07-3.31,2.81-5.93,6.11-5.87 c3.21,0.07,5.8,2.65,5.87,5.87v8.98C51.72,60.54,49.04,63.22,45.74,63.22C45.74,63.22,45.74,63.22,45.74,63.22z" fill="#333333" style="fill:rgb(51, 51, 51);animation-play-state:running" ></path>
<path d="M82.26,63.22c3.31,0,5.99-2.68,5.99-5.99v-8.98c-0.07-3.31-2.81-5.93-6.11-5.87 c-3.21,0.07-5.8,2.65-5.87,5.87v8.98C76.28,60.54,78.96,63.22,82.26,63.22L82.26,63.22z" fill="#333333" style="fill:rgb(51, 51, 51);animation-play-state:running" ></path>
<g style="animation-play-state:running" ><path d="M82.26,81.81 c0,8.94-6.98,15.25-18.26,15.25s-18.26-6.31-18.26-15.25S52.72,66.56,64,66.56S82.26,72.87,82.26,81.81z" stroke-miterlimit="12.8" stroke-width="4.48" stroke="#333333" fill="#E15B64" style="stroke:rgb(51, 51, 51);fill:rgb(225, 91, 100);animation-play-state:running" ></path>
<path d="M56.85,77.07v9.49" stroke-miterlimit="12.8" stroke-linecap="round" stroke-width="4.48" stroke="#333333" fill="none" style="stroke:rgb(51, 51, 51);animation-play-state:running" ></path>
<path d="M71.15,77.07v9.49" stroke-miterlimit="12.8" stroke-linecap="round" stroke-width="4.48" stroke="#333333" fill="none" style="stroke:rgb(51, 51, 51);animation-play-state:running" ></path></g>
<path d="z" fill="none" style="animation-play-state:running" ></path>
<metadata xmlns:d="https://loading.io/stock/" style="animation-play-state:running" ><d:name style="animation-play-state:running" >pig</d:name>


<d:tags style="animation-play-state:running" >pig,piglet,poke,animal</d:tags>


<d:license style="animation-play-state:running" >by</d:license>


<d:slug style="animation-play-state:running" >mwtl51</d:slug></metadata></g><!-- generated by https://loading.io/ --></svg>